<?xml version="1.0" standalone="no"?>
<!DOCTYPE svg PUBLIC "-//W3C//DTD SVG 20010904//EN"
 "http://www.w3.org/TR/2001/REC-SVG-20010904/DTD/svg10.dtd">
<svg version="1.0" xmlns="http://www.w3.org/2000/svg"
 width="400.000000pt" height="400.000000pt" viewBox="0 0 400.000000 400.000000"
 preserveAspectRatio="xMidYMid meet">
<metadata>
Created by potrace 1.14, written by Peter Selinger 2001-2017
</metadata>
<g transform="translate(0.000000,400.000000) scale(0.100000,-0.100000)"
fill="#000000" stroke="none">
<path d="M0 2000 l0 -2000 2000 0 2000 0 0 2000 0 2000 -2000 0 -2000 0 0
-2000z m3070 745 c0 -3 -124 -334 -277 -735 l-276 -730 -144 0 c-85 0 -143 4
-141 9 2 5 127 336 278 735 l275 726 143 0 c78 0 142 -2 142 -5z m-1551 -944
c51 -26 114 -100 129 -149 31 -103 1 -214 -75 -283 -49 -44 -100 -63 -173 -63
-73 0 -124 19 -173 63 -107 96 -117 261 -24 367 41 46 80 72 132 85 46 12 141
2 184 -20z"/>
</g>
</svg>
